{"title":"The Musketeers S03E04 - The Queens Diamonds x264 RB58.mp4","uid":15212118,"size":637170517,"categoryP":"video","categoryS":"tv_shows","magnet":"?xt=urn:btih:f7d88c403e41f93fca361ffbd38c3a9e253214b0&amp;dn=The+Musketeers+S03E04+-+The+Queens+Diamonds+x264+RB58.mp4&amp;tr=udp%3A%2F%2Ftracker.leechers-paradise.org%3A6969&amp;tr=udp%3A%2F%2Fzer0day.ch%3A1337&amp;tr=udp%3A%2F%2Fopen.demonii.com%3A1337&amp;tr=udp%3A%2F%2Ftracker.coppersurfer.tk%3A6969&amp;tr=udp%3A%2F%2Fexodus.desync.com%3A6969","seeders":0,"leechers":0,"uploader":"RedBaron58","files":1,"time":1467672586,"description":"The Musketeers S03E04 The Queen's Diamonds x264 mp4\r\n \nhttp://www.imdb.com/title/tt2733252/\r\n\r\nTrailer:\r\n\r\nPlease be patient My intial upload speed is limited.\r\nThank you for your kind comments and feedback on my other torrents, your feedback is welcome.\r\n\r\n\r\nAbout the Episode:\r\nThe future of the English monarchy rests on the Musketeers' shoulders after Louis orders \r\nthem to recover the stolen crown jewels of Henrietta Maria, Louis' younger sister and \r\nthe Queen of England. \r\nThe daunting mission is made more complicated when they realise the thief is none other \r\nthan Emile Bonnaire, the irrepressible merchant-schemer who narrowly slipped through their \r\ngrasp a few years earlier, while d'Artagnan was still a Musketeer cadet. \r\nThe ensuing mayhem tests the loyalties of each member of the swashbuckling quartet, \r\nand a surprise reunion results in heartbreak for Aramis.\r\n \r\nTom Burke, Howard Charles and Santiago Cabrera starring as d'Artagnan, \r\nAthos, Porthos and Aramis.\r\n\r\n\r\nI hope you enjoy.\r\n\r\n\r\nTechnical:\r\n\r\nGeneral\r\nComplete name                            : I:The Musketeers S03E04 - The Queens Diamonds x264 RB58.mp4\r\nFormat                                   : MPEG-4\r\nFormat profile                           : Base Media\r\nCodec ID                                 : isom\r\nFile size                                : 608 MiB\r\nDuration                                 : 55mn 29s\r\nOverall bit rate                         : 1 531 Kbps\r\nWriting application                      : Lavf54.63.104\r\n\r\nVideo\r\nID                                       : 1\r\nFormat                                   : AVC\r\nFormat/Info                              : Advanced Video Codec\r\nFormat profile                           :   \r\nFormat settings, CABAC                   : Yes\r\nFormat settings, ReFrames                : 4 frames\r\nCodec ID                                 : avc1\r\nCodec ID/Info                            : Advanced Video Coding\r\nDuration                                 : 55mn 29s\r\nBit rate                                 : 1 400 Kbps\r\nWidth                                    : 832 pixels\r\nHeight                                   : 468 pixels\r\nDisplay aspect ratio                     : 16:9\r\nFrame rate mode                          : Constant\r\nFrame rate                               : 25.000 fps\r\nColor space                              : YUV\r\nChroma subsampling                       : 4:2:0\r\nBit depth                                : 8 bits\r\nScan type                                : Progressive\r\nBits/(Pixel*Frame)                       : 0.144\r\nStream size                              : 556 MiB (91%)\r\nWriting library                          : x264 core 123 r2189 35cf912\r\nEncoding settings                        : cabac=1 / ref=3 / deblock=1:0:0\r\n\r\nAudio\r\nID                                       : 2\r\nFormat                                   : AAC\r\nFormat/Info                              : Advanced Audio Codec\r\nFormat profile                           : LC\r\nCodec ID                                 : 40\r\nDuration                                 : 55mn 29s\r\nBit rate mode                            : Constant\r\nBit rate                                 : 123 Kbps\r\nChannel(s)                               : 2 channels\r\nChannel positions                        : Front: L R\r\nSampling rate                            : 48.0 KHz\r\nCompression mode                         : Lossy\r\nStream size                              : 48.7 MiB (8%)","torrent":{"xt":"urn:btih:f7d88c403e41f93fca361ffbd38c3a9e253214b0","amp;dn":"The+Musketeers+S03E04+-+The+Queens+Diamonds+x264+RB58.mp4","amp;tr":["udp%3A%2F%2Ftracker.leechers-paradise.org%3A6969","udp%3A%2F%2Fzer0day.ch%3A1337","udp%3A%2F%2Fopen.demonii.com%3A1337","udp%3A%2F%2Ftracker.coppersurfer.tk%3A6969","udp%3A%2F%2Fexodus.desync.com%3A6969"],"infoHash":"f7d88c403e41f93fca361ffbd38c3a9e253214b0","infoHashBuffer":{"type":"Buffer","data":[247,216,140,64,62,65,249,63,202,54,31,251,211,140,58,158,37,50,20,176]},"announce":[],"urlList":[]}}